<svg width="54" height="55" viewBox="0 0 54 55" fill="none" xmlns="http://www.w3.org/2000/svg">
<path d="M33.8636 32.9542V32.7542L34.0015 32.6094L53.5 12.1292V6.875C53.5 5.19576 52.7858 3.57772 51.502 2.37911C50.2171 1.17942 48.4674 0.5 46.6364 0.5H7.36364C5.53263 0.5 3.78294 1.17942 2.49798 2.37911C1.21417 3.57772 0.5 5.19575 0.5 6.875V12.1292L19.9985 32.6094L20.1364 32.7542V32.9542V54.0395L33.8636 44.4272V32.9542ZM29.9545 42.3958V42.6561L29.7413 42.8054L24.8322 46.2429L24.0455 46.7938V45.8333V31.4125L4.54696 10.9323L4.40909 10.7875V10.5875V6.875C4.40909 6.12309 4.72932 5.40955 5.28679 4.88907C5.84309 4.36969 6.5907 4.08333 7.36364 4.08333H46.6364C47.4093 4.08333 48.1569 4.36969 48.7132 4.88908C49.2707 5.40955 49.5909 6.12309 49.5909 6.875V10.5875V10.7875L49.453 10.9323L29.9545 31.4125V42.3958Z" fill="#CECECE" stroke="black"/>
</svg>
